<?xml version="1.0" standalone="no"?>
<!DOCTYPE svg PUBLIC "-//W3C//DTD SVG 20010904//EN"
 "http://www.w3.org/TR/2001/REC-SVG-20010904/DTD/svg10.dtd">
<svg version="1.0" xmlns="http://www.w3.org/2000/svg"
 width="512.000000pt" height="512.000000pt" viewBox="0 0 512.000000 512.000000"
 preserveAspectRatio="xMidYMid meet">
<metadata>
Created by potrace 1.11, written by Peter Selinger 2001-2013
</metadata>
<g transform="translate(0.000000,512.000000) scale(0.100000,-0.100000)"
fill="#000000" stroke="none">
<path d="M2487 4694 c-1 -1 -40 -4 -87 -8 -114 -8 -162 -15 -245 -33 -38 -8
-83 -17 -100 -20 -16 -3 -91 -25 -165 -49 -294 -98 -581 -269 -800 -479 -68
-65 -159 -162 -185 -199 -11 -15 -32 -42 -47 -59 -15 -18 -28 -35 -28 -39 0
-4 -6 -13 -13 -20 -27 -27 -139 -218 -186 -319 -108 -230 -165 -438 -196 -722
-7 -62 -8 -348 -1 -382 2 -11 7 -42 10 -70 4 -27 10 -66 12 -85 48 -336 230
-733 466 -1015 77 -92 215 -232 259 -262 13 -10 35 -28 49 -41 51 -48 267
-184 384 -242 248 -122 491 -191 761 -216 67 -6 309 -6 365 0 25 3 68 7 95 10
28 3 75 11 105 16 30 6 66 13 80 16 92 18 309 90 418 140 89 40 292 154 292
164 0 15 -615 620 -630 620 -9 0 -20 -4 -26 -9 -11 -11 -174 -69 -217 -77
-144 -27 -206 -32 -332 -29 -77 2 -151 6 -165 9 -14 3 -50 11 -80 17 -72 15
-220 68 -300 109 -236 119 -441 323 -559 558 -33 66 -92 212 -85 212 2 0 -1
12 -7 28 -12 31 -16 48 -34 157 -19 115 -13 337 13 450 74 327 256 600 526
786 55 38 105 69 112 69 7 0 14 4 16 8 6 17 183 85 296 114 100 26 139 31 267
33 158 4 219 -3 350 -36 419 -105 758 -419 896 -831 51 -152 67 -263 64 -433
-1 -82 -6 -161 -9 -175 -4 -14 -9 -40 -12 -58 -8 -48 -49 -179 -73 -235 -12
-27 -21 -52 -21 -56 0 -9 604 -614 617 -618 8 -3 81 117 135 222 50 97 137
328 153 406 2 9 12 59 23 110 18 85 29 158 38 244 4 45 5 325 0 365 -12 112
-21 171 -31 220 -3 14 -8 40 -11 59 -25 148 -152 471 -247 626 -107 175 -176
262 -322 410 -148 150 -179 176 -330 276 -305 204 -667 330 -1020 355 -77 5
-235 10 -238 8z"/>
<path d="M2405 3046 c-96 -34 -143 -63 -209 -130 -101 -103 -147 -221 -145
-366 2 -109 31 -199 88 -280 71 -100 189 -181 305 -209 100 -25 248 -7 346 41
70 35 150 106 195 173 76 115 105 283 71 412 -47 177 -192 321 -371 370 -74
20 -207 15 -280 -11z"/>
</g>
</svg>
